<svg width="50" height="50" viewBox="0 0 50 50" fill="none" xmlns="http://www.w3.org/2000/svg">
<circle cx="25" cy="24" r="24" fill="#1d4ed8"/>
<mask id="mask0_1_3" style="mask-type:alpha" maskUnits="userSpaceOnUse" x="1" y="0" width="48" height="48">
<circle cx="25" cy="24" r="24" fill="#4131FF"/>
</mask>
<g mask="url(#mask0_1_3)">
<path d="M23.0238 5.35714C22.5476 1.54761 17.2698 0.992058 14.6905 1.19047C20.6429 -7.7381 45.0476 1.19047 44.4524 9.52381C43.8571 17.8571 37.3095 11.3095 36.119 8.33333C34.9286 5.35714 29.5714 15.4762 27.1905 18.4524C24.8095 21.4286 23.619 10.119 23.0238 5.35714Z" fill="#0d9488"/>
<path d="M13.5 23.2143C14.4524 19.881 5.96032 16.2698 1.59524 14.881C-9.83333 34.8809 3.18254 42.6587 11.119 44.0476C11.7143 44.4444 13.9762 44.7619 18.2619 42.8571C22.5476 40.9524 21.6349 35.7143 20.6429 33.3333C17.8651 31.3492 12.5476 26.5476 13.5 23.2143Z" fill="#0d9488"/>
<path d="M37.9048 25.5952C36.4762 22.2619 44.4524 21.8254 48.619 22.0238C49.0952 20.5953 51.9921 22.2222 53.381 23.2143L45.6429 36.9048C41.4762 37.8968 32.9048 39.2857 31.9524 36.9048C30.7619 33.9286 39.6905 29.7619 37.9048 25.5952Z" fill="#0d9488"/>
<path d="M24.8095 30.9524C23.0238 30.9524 26.5952 26.1905 24.2143 23.8095C23.619 20.8333 31.3571 20.2381 31.9524 22.0238C32.5476 23.8095 28.9762 26.1905 29.5714 28.5714C30.1667 30.9524 26.5952 30.9524 24.8095 30.9524Z" fill="#0d9488"/>
</g>
<rect x="25.0984" y="20.2381" width="2.38095" height="7.14286" rx="1" transform="rotate(45 25.0984 20.2381)" fill="#FF48E2"/>
<rect x="31.0508" y="20.2381" width="2.38095" height="7.14286" rx="1" transform="rotate(45 31.0508 20.2381)" fill="#FF48E2"/>
<rect x="41.765" y="30.9524" width="2.38095" height="7.14286" rx="1" transform="rotate(45 41.765 30.9524)" fill="#FF48E2"/>
<path d="M18.1925 46.2617L18.9905 44.541L19.9011 45.4384L18.1925 46.2617Z" fill="#FF48E2"/>
<rect x="41.765" y="36.9048" width="2.38095" height="7.14286" rx="1" transform="rotate(45 41.765 36.9048)" fill="#FF48E2"/>
<path d="M16.7475 23.6191C16.9506 23.3653 17.2644 23.226 17.5889 23.2456L35.0196 24.3021C35.7803 24.3482 36.2119 25.1942 35.8028 25.8371L32.9524 30.3163C32.7128 30.6928 32.2526 30.865 31.8247 30.7382L16.9407 26.3281C16.6473 26.2412 16.4099 26.0248 16.2963 25.7407L16.0974 25.2434C15.9636 24.909 16.02 24.5286 16.245 24.2473L16.7475 23.6191Z" fill="#FF6B00"/>
<path d="M37.5293 46.0052C37.2257 45.8888 36.9977 45.6322 36.9179 45.317L32.6296 28.3891C32.4425 27.6503 33.1174 26.9821 33.8542 27.1766L38.9876 28.5317C39.4191 28.6456 39.7229 29.0318 39.7321 29.478L40.0516 44.9983C40.0579 45.3042 39.9238 45.5962 39.6877 45.7907L39.2743 46.1313C38.9964 46.3603 38.6167 46.4221 38.2805 46.2932L37.5293 46.0052Z" fill="#FF6B00"/>
<path d="M14.811 38.3485C15.0207 38.1282 15.3193 38.0154 15.6223 38.0419L20.7563 38.4912C21.3942 38.547 21.816 39.1796 21.6222 39.7899L20.6772 42.7668C20.4791 43.3908 19.7449 43.6593 19.191 43.3103L14.8166 40.5545C14.6565 40.4536 14.5282 40.3093 14.4468 40.1383L14.2959 39.8213C14.1177 39.4471 14.1888 39.0018 14.4746 38.7017L14.811 38.3485Z" fill="#FF6B00"/>
<path d="M25.6515 49.189C25.8718 48.9793 25.9846 48.6807 25.9581 48.3777L25.5088 43.2437C25.453 42.6058 24.8204 42.184 24.2101 42.3778L21.2332 43.3228C20.6092 43.5209 20.3407 44.2551 20.6897 44.809L23.4455 49.1834C23.5464 49.3435 23.6907 49.4718 23.8617 49.5532L24.1787 49.7041C24.5529 49.8823 24.9982 49.8112 25.2983 49.5254L25.6515 49.189Z" fill="#FF6B00"/>
<path d="M18.8571 40.9998C18.8571 40.7346 18.9625 40.4802 19.15 40.2927L41.3471 18.0957C41.5018 17.9409 41.703 17.8412 41.9198 17.8118L46.1268 17.2414C46.7815 17.1526 47.3408 17.712 47.2521 18.3667L46.6817 22.5737C46.6523 22.7905 46.5526 22.9917 46.3978 23.1464L24.2008 45.3434C24.0133 45.531 23.7589 45.6363 23.4937 45.6363L19.8571 45.6363C19.3049 45.6363 18.8571 45.1886 18.8571 44.6363L18.8571 40.9998Z" fill="#D9D9D9"/>
</svg>
